<svg xmlns="http://www.w3.org/2000/svg" xmlns:xlink="http://www.w3.org/1999/xlink" width="1283" zoomAndPan="magnify" viewBox="0 0 962.25 633.000003" height="844" preserveAspectRatio="xMidYMid meet" version="1.2"><defs><clipPath id="3e34c5486f"><path d="M 0.382812 0 L 961.117188 0 L 961.117188 632 L 0.382812 632 Z M 0.382812 0 "/></clipPath></defs><g id="f49ae3a0f2"><g clip-rule="nonzero" clip-path="url(#3e34c5486f)"><path style=" stroke:none;fill-rule:nonzero;fill:#ffffff;fill-opacity:1;" d="M 415.976562 8.984375 L 418.222656 9.566406 C 450.722656 18.15625 481.984375 32.84375 508.832031 53.167969 L 510.21875 54.214844 C 513.289062 56.558594 516.320312 58.957031 519.316406 61.402344 C 519.714844 61.730469 520.117188 62.058594 520.53125 62.394531 C 529.84375 70.03125 538.542969 78.316406 547.019531 86.863281 L 548.980469 86.175781 C 568.253906 79.484375 587.300781 74.027344 607.675781 71.886719 L 610.484375 71.589844 C 650.363281 68.234375 691.921875 75.230469 728.234375 92.058594 C 745.167969 100.210938 760.492188 110.761719 774.355469 123.414062 C 776.101562 125.003906 777.882812 126.546875 779.667969 128.09375 C 782.191406 130.332031 784.535156 132.742188 786.703125 135.324219 C 787.757812 136.574219 788.832031 137.808594 789.925781 139.023438 C 809.492188 160.996094 822.929688 189.351562 829.003906 218.015625 C 830.339844 224.6875 831.550781 231.359375 832.320312 238.125 L 834.335938 238.15625 C 854.730469 238.917969 874.824219 245.527344 892.226562 256.09375 C 899.851562 260.929688 906.652344 266.355469 913.191406 272.570312 C 914.203125 273.433594 915.214844 274.289062 916.234375 275.144531 C 934.53125 291.183594 947.589844 314.167969 955.359375 336.96875 L 956.070312 339.035156 C 959.96875 350.984375 961.585938 362.550781 961.539062 375.078125 C 961.542969 376.460938 961.550781 377.847656 961.554688 379.230469 C 961.5625 382.109375 961.558594 384.984375 961.546875 387.863281 C 961.539062 390.777344 961.542969 393.691406 961.5625 396.605469 C 961.78125 427.328125 961.78125 427.328125 957.371094 441.054688 C 956.976562 442.398438 956.578125 443.742188 956.1875 445.089844 C 949.050781 469.089844 935.554688 489.710938 918.433594 507.699219 L 916.953125 509.296875 C 901.886719 525.101562 881.527344 535.992188 860.847656 542.304688 C 843.175781 547.304688 824.78125 548.527344 806.53125 546.777344 L 804.820312 546.617188 C 799.363281 546.03125 794.339844 544.808594 788.890625 543.640625 L 788.890625 632 L 646.613281 632 L 645.863281 500.957031 L 631.636719 515.1875 C 612.765625 530.550781 591.675781 541.382812 567.5625 545.59375 C 554.308594 547.726562 541 548.121094 527.644531 546.777344 L 526.058594 546.617188 C 520.46875 545.972656 515.144531 544.753906 509.578125 543.640625 L 509.578125 632 L 368.054688 632 L 368.054688 540.644531 L 253.484375 540.644531 L 253.484375 514.4375 L 247.867188 518.507812 C 225.972656 534.078125 200.855469 543.753906 174.109375 546.636719 L 171.914062 546.886719 C 143.59375 549.609375 114.425781 545.328125 88.398438 533.785156 C 72.875 526.585938 59.121094 516.507812 46.8125 504.703125 L 45.605469 503.558594 C 39.394531 497.644531 33.886719 491.417969 28.839844 484.484375 L 27.902344 483.207031 C 13.105469 462.761719 4.425781 439.007812 1.132812 414.097656 L 0.917969 412.515625 C 0.140625 406.035156 0.203125 399.503906 0.195312 392.988281 L 0.195312 391.070312 C 0.207031 380.878906 0.664062 370.957031 2.632812 360.929688 L 3.019531 358.9375 C 5.929688 344.609375 10.613281 331.085938 17.605469 318.246094 L 18.335938 316.886719 C 25.59375 303.363281 35.070312 291.734375 45.78125 280.804688 L 47.507812 279.027344 C 50.304688 276.230469 52.949219 273.84375 56.394531 271.886719 C 59.996094 269.804688 63.210938 267.871094 65.53125 264.332031 C 67.523438 258.238281 67.722656 251.707031 68.132812 245.34375 C 68.546875 239.242188 69.578125 233.277344 70.679688 227.265625 L 70.972656 225.636719 C 75.269531 201.945312 82.191406 179.042969 92.488281 157.25 L 93.535156 155.023438 C 100.972656 139.335938 109.902344 124.796875 120.195312 110.824219 L 121.15625 109.515625 C 128.046875 100.199219 135.738281 91.578125 143.644531 83.117188 L 145.105469 81.542969 C 147.929688 78.554688 150.90625 75.726562 154.03125 73.058594 C 155.765625 71.5625 157.421875 69.992188 159.085938 68.421875 C 193.742188 36.875 238.347656 16.222656 283.8125 6.25 C 296.058594 3.660156 308.402344 1.757812 320.878906 0.75 L 322.46875 0.617188 C 353.84375 -1.839844 385.550781 1.082031 415.976562 8.984375 "/></g><path style=" stroke:none;fill-rule:nonzero;fill:#013049;fill-opacity:1;" d="M 820.792969 270.144531 C 822.609375 270.136719 824.425781 270.113281 826.242188 270.089844 C 837.03125 270.015625 846.933594 271.476562 857.078125 275.332031 L 859.191406 276.121094 C 872.195312 281.109375 882.859375 288.4375 892.972656 298.027344 L 895.007812 299.941406 C 909.105469 313.585938 920.0625 331.234375 925.558594 350.109375 C 925.9375 351.46875 926.304688 352.828125 926.671875 354.191406 L 927.3125 356.320312 C 933.632812 378.65625 933 404.675781 927.558594 427.089844 C 921.5625 449.988281 910.527344 469.410156 894.0625 486.398438 C 881.894531 498.511719 866.421875 507.300781 849.910156 511.820312 C 848.296875 512.230469 846.679688 512.59375 845.050781 512.941406 L 843.140625 513.359375 C 836.171875 514.710938 829.238281 514.734375 822.164062 514.71875 L 820.25 514.71875 C 810.972656 514.695312 802.285156 514.261719 793.382812 511.441406 L 790.554688 510.59375 C 777.242188 506.234375 767.246094 498.785156 757.4375 488.976562 L 756.691406 601.300781 L 678.8125 601.300781 L 678.8125 276.3125 L 756.691406 276.3125 L 757.4375 295.78125 L 760.574219 292.460938 C 770.714844 282.375 783.691406 275.746094 797.441406 272.085938 C 805.152344 270.238281 812.910156 270.160156 820.792969 270.144531 M 535.917969 270.144531 L 537.632812 270.121094 C 558.027344 269.910156 575.167969 272.382812 593.304688 282.273438 C 609.105469 291.207031 621.339844 304.257812 631.636719 318.996094 L 633.085938 321.042969 C 644.402344 337.875 650.078125 358.101562 651.855469 378.152344 C 651.960938 380.273438 651.996094 382.386719 652.007812 384.507812 L 652.023438 386.273438 C 652.035156 388.136719 652.039062 390 652.042969 391.867188 L 652.042969 393.792969 C 652.039062 403.234375 651.6875 412.34375 649.609375 421.582031 L 649.28125 423.140625 C 646.632812 435.5625 642.15625 447.117188 636.128906 458.277344 L 634.847656 460.679688 C 625.503906 477.425781 611.429688 491.402344 595.191406 501.425781 C 580.679688 509.988281 564.964844 514.429688 548.152344 514.644531 C 546.449219 514.660156 544.746094 514.667969 543.042969 514.671875 L 541.394531 514.679688 C 526.128906 514.71875 511.136719 512.019531 497.597656 504.703125 C 490.300781 500.347656 484.421875 494.746094 478.128906 488.976562 L 477.382812 601.300781 L 400.253906 601.300781 L 400.253906 276.3125 L 477.382812 276.3125 L 478.128906 295.78125 L 484.867188 289.042969 C 496.171875 279.542969 509.332031 273.742188 523.808594 271.070312 C 527.824219 270.5 531.859375 270.1875 535.917969 270.144531 "/><path style=" stroke:none;fill-rule:nonzero;fill:#f47f20;fill-opacity:1;" d="M 345.402344 32.714844 L 347.992188 32.71875 C 360.292969 32.75 372.398438 32.941406 384.527344 35.195312 L 386.667969 35.582031 C 430.519531 43.824219 470.804688 62.652344 504.761719 91.589844 C 508.101562 94.460938 511.308594 97.480469 514.378906 100.644531 C 515.636719 101.953125 515.636719 101.953125 517.488281 103.335938 C 519.589844 105.058594 521.234375 106.964844 522.996094 109.027344 C 524.496094 110.753906 526.039062 112.4375 527.597656 114.113281 C 531.304688 118.101562 534.792969 122.167969 538.035156 126.550781 C 540.710938 126.113281 542.804688 125.40625 545.195312 124.136719 L 547.167969 123.109375 L 549.265625 122.011719 C 571.164062 110.832031 595.257812 103.992188 619.953125 103.960938 L 622.121094 103.953125 C 623.628906 103.949219 625.136719 103.945312 626.644531 103.945312 C 628.890625 103.945312 631.140625 103.933594 633.390625 103.917969 C 647.511719 103.875 661.136719 104.964844 674.898438 108.195312 C 676.480469 108.558594 678.0625 108.886719 679.652344 109.203125 C 699.511719 113.28125 719.992188 122.246094 736.472656 134.039062 L 738.726562 135.636719 C 749.980469 143.84375 760.09375 153 768.671875 163.992188 L 769.652344 165.238281 C 775.40625 172.628906 780.117188 180.378906 784.394531 188.703125 L 785.230469 190.324219 C 789.261719 198.273438 792.304688 206.382812 794.878906 214.910156 L 795.359375 216.449219 C 797.28125 222.65625 798.785156 228.613281 797.875 235.128906 C 796.675781 239.589844 794.265625 243.226562 791.101562 246.5625 C 788.554688 248.816406 786.222656 250.089844 782.898438 250.855469 C 778.480469 251.308594 774.042969 251.5625 769.746094 250.28125 C 768.273438 249.578125 767 248.804688 765.675781 247.859375 L 763.664062 246.59375 C 760.496094 243.425781 758.734375 239.941406 757.445312 235.660156 C 757.082031 234.269531 756.722656 232.875 756.371094 231.484375 C 752.042969 214.367188 744.761719 199.347656 733.476562 185.707031 L 731.699219 183.542969 C 727.746094 178.945312 723.328125 175.132812 718.5 171.480469 L 716.3125 169.824219 C 697.550781 156.25 675.402344 149.035156 652.605469 146.019531 L 651.035156 145.800781 C 645.074219 145.082031 639.089844 145.132812 633.09375 145.132812 C 631.238281 145.128906 629.382812 145.117188 627.527344 145.101562 C 616.960938 145.066406 606.550781 145.828125 596.253906 148.359375 L 594.285156 148.839844 C 575.765625 153.585938 559.785156 162.472656 544.398438 173.578125 C 541.886719 175.214844 540.011719 175.914062 537.007812 176.269531 C 532.683594 176.390625 528.382812 176.386719 524.398438 174.539062 C 519.078125 171.308594 515.933594 167.066406 512.617188 161.875 C 504.410156 149.203125 493.664062 136.085938 482.003906 126.40625 C 480.71875 125.332031 479.453125 124.234375 478.207031 123.113281 C 454.933594 102.363281 425.949219 87.710938 395.761719 80.125 L 393.984375 79.667969 C 377.632812 75.5 361.585938 73.96875 344.746094 73.992188 L 342.894531 73.992188 C 333.726562 74.011719 324.714844 74.265625 315.636719 75.628906 L 313.515625 75.933594 C 303.304688 77.421875 293.304688 79.339844 283.4375 82.371094 L 281.257812 83.039062 C 258.0625 90.304688 235.601562 101.269531 216.792969 116.816406 L 214.695312 118.484375 C 203.652344 127.324219 193.316406 137.113281 184.59375 148.265625 L 182.773438 150.554688 C 164.363281 173.878906 152.28125 200.652344 145.230469 229.433594 C 143.96875 234.4375 142.714844 237.90625 139.160156 241.714844 C 136.339844 244.113281 133.617188 246.3125 129.929688 247.109375 C 125.617188 247.582031 121.480469 247.703125 117.289062 246.476562 C 113.386719 244.710938 110.425781 242.34375 107.769531 238.992188 C 105.671875 235.773438 104.640625 232.648438 104.316406 228.816406 C 104.230469 223.292969 105.175781 218.402344 106.621094 213.085938 L 107.335938 210.429688 C 118.183594 171.171875 138.320312 135.648438 166.621094 106.332031 L 167.972656 104.929688 C 173.726562 99 179.574219 93.457031 186.089844 88.359375 C 186.9375 87.667969 187.78125 86.96875 188.621094 86.269531 C 203.347656 74.128906 219.785156 64.332031 237.011719 56.160156 L 238.671875 55.359375 C 272.308594 39.238281 308.304688 32.589844 345.402344 32.714844 "/><path style=" stroke:none;fill-rule:nonzero;fill:#013049;fill-opacity:1;" d="M 155.953125 270.089844 L 158.027344 270.082031 C 168.414062 270.078125 178.253906 270.640625 188.335938 273.316406 L 191.328125 274.050781 C 206.25 277.988281 220.417969 285.507812 232.519531 295.035156 L 233.761719 296.007812 C 243.441406 303.660156 251.285156 312.386719 257.976562 322.738281 L 259.222656 324.628906 C 260.09375 325.972656 260.914062 327.347656 261.722656 328.730469 L 261.722656 330.226562 L 260.082031 331.160156 C 250.589844 336.570312 241.105469 341.984375 231.675781 347.496094 C 225.253906 351.253906 218.828125 354.996094 212.394531 358.730469 L 209.980469 360.136719 C 205.339844 362.820312 200.652344 365.339844 195.824219 367.667969 L 194.449219 365.75 C 189.503906 358.992188 184.492188 353.566406 176.824219 349.839844 C 167.058594 345.808594 157.554688 345.015625 147.128906 346.277344 C 139.398438 347.5625 133.152344 350.414062 126.929688 355.160156 C 119.886719 361.195312 115.929688 367.953125 112.664062 376.550781 C 111.101562 381.75 111.074219 386.90625 111.070312 392.285156 L 111.039062 394.425781 C 111.023438 402.546875 112.996094 409.734375 116.449219 417.089844 C 120.394531 423.695312 125.285156 429.167969 132.007812 432.964844 C 140.710938 437.632812 148.25 439.226562 158.140625 438.996094 C 166.308594 438.636719 174.394531 436.507812 181.429688 432.332031 C 186.054688 429.226562 189.199219 425.859375 192.265625 421.222656 C 193.558594 419.367188 194.960938 417.914062 196.574219 416.34375 L 228.179688 434.574219 C 233.277344 437.515625 238.378906 440.460938 243.472656 443.40625 L 248.457031 446.289062 C 252.851562 448.832031 257.273438 451.332031 261.722656 453.78125 C 257.089844 466.726562 245.988281 478.15625 235.804688 487.035156 C 223.382812 497.429688 208.578125 505.058594 193.160156 509.851562 L 191.179688 510.472656 C 179.511719 513.90625 167.875 514.875 155.765625 514.8125 L 153.691406 514.808594 C 142.171875 514.765625 131.34375 513.800781 120.195312 510.691406 L 118.292969 510.171875 C 98.621094 504.59375 82.648438 493.800781 67.777344 479.992188 L 66.433594 478.769531 C 54.90625 467.847656 47.210938 453.882812 40.820312 439.554688 L 39.621094 436.914062 C 31.601562 417.003906 30.492188 393.160156 33.425781 372.070312 C 36.722656 351.417969 44.484375 332.449219 57.585938 316.101562 C 60.816406 312.171875 64.269531 308.453125 67.777344 304.769531 L 69.09375 303.332031 C 82.074219 289.601562 100.136719 279.949219 118.066406 274.507812 C 130.636719 270.894531 142.960938 270.125 155.953125 270.089844 M 285.683594 276.3125 L 363.5625 276.3125 L 363.5625 508.445312 L 285.683594 508.445312 Z M 285.683594 276.3125 "/><path style=" stroke:none;fill-rule:nonzero;fill:#ffffff;fill-opacity:1;" d="M 525.023438 341.976562 L 527.445312 341.96875 C 535.835938 342.023438 543.152344 343.878906 550.765625 347.449219 C 557.605469 351.503906 563.429688 356.808594 567.410156 363.730469 C 573.457031 374.871094 574.457031 384.960938 574.183594 397.523438 C 573.847656 406.75 571.234375 414.46875 566.613281 422.445312 C 562.722656 428.617188 557.183594 433.855469 550.765625 437.308594 C 539.882812 442.246094 529.683594 443.125 517.816406 442.550781 C 509.824219 441.761719 502.648438 438.929688 496.101562 434.3125 C 488.957031 428.605469 484.128906 421.804688 480.753906 413.339844 L 480.140625 411.753906 L 479.5625 410.265625 C 476.214844 401.125 476.265625 389.523438 477.867188 379.996094 C 479.742188 370.976562 484.03125 362.925781 489.941406 355.898438 C 495.738281 349.960938 503.148438 345.585938 511.09375 343.246094 C 515.769531 342.007812 520.214844 341.902344 525.023438 341.976562 M 804.894531 341.882812 L 807.375 341.902344 C 816.722656 342.09375 824.171875 344.34375 832.339844 349.015625 C 839.710938 353.75 844.519531 359.949219 848.605469 367.621094 C 853.753906 378.375 854.183594 390.414062 853.285156 402.113281 C 852.582031 406.558594 851.191406 410.671875 849.542969 414.84375 L 848.722656 416.972656 C 845.757812 423.679688 840.59375 429.875 834.707031 434.21875 C 827.339844 438.941406 819.902344 442.191406 811.128906 442.636719 C 800.871094 443.03125 791.425781 442.695312 781.960938 438.292969 C 774.652344 434.335938 768.816406 429.25 764.175781 422.332031 C 758.714844 412.855469 756.527344 404.40625 756.503906 393.550781 C 756.519531 382.921875 757.648438 374.359375 762.722656 364.867188 C 767.078125 357.570312 772.507812 352.027344 779.816406 347.660156 C 787.871094 343.378906 795.816406 341.792969 804.894531 341.882812 "/><path style=" stroke:none;fill-rule:nonzero;fill:#f47f20;fill-opacity:1;" d="M 337.378906 169.90625 C 345.269531 172.828125 351.675781 176.640625 357.570312 182.710938 L 358.84375 183.9375 C 363.589844 188.886719 366.707031 196.039062 368.757812 202.507812 C 370.65625 210.628906 369.875 218.550781 367.488281 226.46875 C 364.238281 235.761719 359.347656 242.226562 352.050781 248.679688 C 346.863281 252.660156 340.777344 255.570312 334.355469 256.84375 C 325.855469 257.789062 316.738281 257.859375 308.65625 254.789062 C 300.214844 250.835938 293.132812 245.1875 287.574219 237.65625 C 285.53125 234.476562 284.035156 231.167969 282.6875 227.640625 L 281.960938 225.734375 C 279.699219 218.789062 279.824219 211.386719 280.765625 204.203125 C 282.433594 196.378906 286.5625 188.957031 291.628906 182.800781 C 297.609375 176.640625 305.113281 172.113281 313.300781 169.539062 C 320.957031 167.429688 329.785156 167.667969 337.378906 169.90625 "/></g></svg>